PathFileType	4	(X/Y/Z)	pose_F01_0-60.trc
DataRate	CameraRate	NumFrames	NumMarkers	Units	OrigDataRate	OrigDataStartFrame	OrigNumFrames
30	30	7	21	m	30	50	60
Frame#	Time	CHip			RHip			RKnee			RAnkle			RBigToe			RSmallToe			RHeel			LHip			LKnee			LAnkle			LBigToe			LSmallToe			LHeel			Neck			Nose			RShoulder			RElbow			RWrist			LShoulder			LElbow			LWrist			
		X1	Y1	Z1	X2	Y2	Z2	X3	Y3	Z3	X4	Y4	Z4	X5	Y5	Z5	X6	Y6	Z6	X7	Y7	Z7	X8	Y8	Z8	X9	Y9	Z9	X10	Y10	Z10	X11	Y11	Z11	X12	Y12	Z12	X13	Y13	Z13	X14	Y14	Z14	X15	Y15	Z15	X16	Y16	Z16	X17	Y17	Z17	X18	Y18	Z18	X19	Y19	Z19	X20	Y20	Z20	X21	Y21	Z21	
50	1.6666666666666667	-0.24137643195185998	1.8329743835788639	-0.6394202157896951	-0.2534230335310963	1.8330067531366254	-0.5846826036407011	-0.23061670139993606	1.7181461398807925	-0.5436365470190646	-0.2247805957237046	1.5896881952897288	-0.5437367945759791	-0.23800366441898427	1.5585729764967549	-0.4582730514287656	-0.2385910139663246	1.5707492694014886	-0.4544587724145726	-0.22362514038169345	1.574857574211338	-0.5566737939825214	-0.22749704540102747	1.8336118000744421	-0.6991971470657206	-0.2308439364033855	1.7098136143902136	-0.699997678577394	-0.23597522977119903	1.5709425230933343	-0.7022428249796552	-0.25728654146457147	1.5380721655807708	-0.6315898185462482	-0.25003497312586126	1.5373241314114792	-0.6725318559928809	-0.2302657715013539	1.561508692931211	-0.7193143071033665	-0.2347310938854282	1.995045473264191	-0.6861522060232115	-0.25005092804964146	2.0596225060981084	-0.6489219111470531	-0.25915020010163775	1.993068918693916	-0.6166110021559699	-0.26051978636904277	1.9227736595886942	-0.5490670394978521	-1.5741455860293079	1.8748323275140732	0.8486940296094423	-0.20866042496085924	1.9969441161114414	-0.7561651500780961	-1.2095942048196116	1.83267846730457	0.2745271191739173	-1.4198072971490936	1.8684707692675226	0.606583478113385
51	1.7	-0.24230405539831262	1.836794073864965	-0.6344518793238255	-0.2533000523100943	1.834180083341709	-0.576299918584518	-0.22818554327644738	1.713843684256189	-0.537002736153735	-0.21811302791693057	1.5897262236900385	-0.5195770286240076	-0.2335231739801724	1.5572650714082017	-0.444894457171534	-0.2349011913310623	1.5664797786785802	-0.4353369941224118	-0.21723920008796363	1.5769903627911348	-0.5320930037880534	-0.2295204944566011	1.8368955027233287	-0.689035507474297	-0.23002490970957226	1.707095911521969	-0.6966808516776233	-0.2372256169216552	1.5695409835481595	-0.7048593703188784	-0.2593401712076315	1.5380791384490524	-0.6380000419031463	-0.25372159866442945	1.5371997236646069	-0.6728533303924895	-0.23059630881640203	1.5600946869114047	-0.7188205410641034	-0.23327965232502262	1.9956152779228538	-0.6718697354303689	-0.2500540944725854	2.059580253765445	-0.6488098195571694	-0.2555295394980873	1.993365053742485	-0.5960019543329279	-0.25599228596905876	1.914073038728729	-0.5231787615274924	-1.5866425893150717	1.875407026702777	0.8722032940960168	-0.20774850964810293	1.9980128417438758	-0.7530021537753916	-1.2096044512168496	1.8307863919691536	0.27379703043609227	-1.4252459996526803	1.8672804711595627	0.6068188721719419
52	1.7333333333333334	-0.23991733895860054	1.8354028861767429	-0.6159131235083273	-0.25063780970671845	1.8351746770173358	-0.5578698591014117	-0.2270716276197958	1.712493643360965	-0.5335786277875073	-0.21315684146604988	1.5912148946058242	-0.5024133650323949	-0.23403420822453289	1.553828599885324	-0.44879104392626606	-0.2311777541068757	1.5623338861778027	-0.4343514976938995	-0.2114139832559185	1.5816667422493436	-0.5120551182275881	-0.2271411933805743	1.8370447528912284	-0.679300159640556	-0.22707360520152728	1.7082717228710516	-0.6873334224804151	-0.23579930449061562	1.5695785720044395	-0.7024595764540356	-0.25830861976421515	1.5379859323085514	-0.6349188925712541	-0.2509839037078053	1.5372627794365912	-0.6757391367292448	-0.23010330791832578	1.56013625768134	-0.7195439726021863	-0.23067307125976205	1.9926737371158791	-0.6622371823011596	-0.25019121678379597	2.05815280202328	-0.6401920173706265	-0.2508673751725687	1.9902787972552867	-0.5798114743316473	-0.2531459095765347	1.9097265883301036	-0.504317623562213	-1.5991395926008354	1.8759817258914806	0.8957125585825914	-0.20691533093173184	1.995274729902645	-0.749590880244564	-1.2101579084309455	1.828275456026905	0.27394706075806435	-1.4521272324265055	1.8659859908005778	0.6574699491932796
53	1.7666666666666666	-0.23464260952735574	1.8350149433041048	-0.6084796437432203	-0.24643990757107456	1.8322512641723103	-0.5444873600387178	-0.22589768019805323	1.7109989469759985	-0.5303145529064566	-0.21225534445647834	1.5852562595079982	-0.49435351551162915	-0.23606659845799963	1.552745854742193	-0.4556179711222731	-0.2327675884645258	1.559729773562138	-0.4327683476012691	-0.20755946956554058	1.5733653937242467	-0.5024203798210659	-0.2187350390939024	1.8355875429163566	-0.67096314566033	-0.22716257824137884	1.7066205775719492	-0.6786488130975729	-0.23611857964601066	1.5680751758572782	-0.7019620689684242	-0.2592338281277168	1.5377895298214663	-0.6381206746961839	-0.25127607634891824	1.5359084739958677	-0.6751921541959433	-0.23025608996240837	1.5572889816097937	-0.7192333858924703	-0.2269839533526958	1.9908533644743414	-0.6493468804903495	-0.24734641626887482	2.057369735076541	-0.63037221263408	-0.24813490918805295	1.9884942642997945	-0.5619298043477707	-0.2501520385530671	1.9095312393987935	-0.49462075848747844	-1.6193098241183108	1.87092341921717	0.9372041629402259	-0.20231653052553522	1.9929184568892426	-0.7422589022226928	-0.19482142685884113	1.906988401039633	-0.7469594386142706	-1.4154754452457674	1.8643105464581022	0.6010380724257387
54	1.8	-0.22919321244413865	1.8333783371173433	-0.5888048198862555	-0.24165809190555385	1.8305955986778626	-0.5277969953740324	-0.22082000262670629	1.7094541679765578	-0.5136023506574757	-0.2104740757474378	1.5868989390077164	-0.49627118851238955	-0.23477391684098495	1.5513490098376568	-0.45258704854311577	-0.23248607225138115	1.5610706625435455	-0.43327265876036225	-0.20766659108265476	1.5743911925113012	-0.502183183635586	-0.2174091862457281	1.8338041039365125	-0.6557081917893873	-0.2228830224699509	1.7066651131332014	-0.6620396943104302	-0.23484345506187682	1.5694447972159264	-0.6992799045388648	-0.2593680877051758	1.5379882179265605	-0.6381447528933621	-0.2513479610239952	1.5359137050400498	-0.6751747137683362	-0.23035621403678558	1.5587252795402524	-0.7189071884597752	-0.2224349702448785	1.9889006830949747	-0.6334596494636854	-0.24363713013498192	2.0543582718109907	-0.6171584024861023	-0.24192084417557347	1.9876805244198006	-0.5504485859861344	-0.24381740937267976	1.9103369610524468	-0.47517676642661993	-1.6394800556357865	1.8658651125428594	0.9786957672978603	-0.20018037966835597	1.990586540655515	-0.7244201697401057	-0.1827382520613592	1.9050124437611635	-0.7435780012440141	-1.467844701274073	1.8621968150404633	0.6865488485296415
55	1.8333333333333333	-0.22628355569951128	1.833218684667962	-0.5791154960417703	-0.23663111925453287	1.8328530521936017	-0.5118849130632916	-0.22173347615554062	1.7123938192708554	-0.5085409218386371	-0.21047996289294535	1.5869922591481083	-0.49618448634518886	-0.2347861610948569	1.5512133400885502	-0.4526103701533981	-0.23270573867222608	1.5595206677890652	-0.43273282643035976	-0.2078510061729743	1.5758499236366545	-0.5019910077029529	-0.21086268122817425	1.8350645644938093	-0.6422012069114418	-0.21793405985576325	1.7104967757114393	-0.6464426709466592	-0.23203279785639105	1.5766760970265534	-0.6850770166667935	-0.2595953879035076	1.5395722674649852	-0.6378288495019697	-0.25195914361619187	1.5402313395412863	-0.6744106360249208	-0.2245123083715143	1.5644927095531196	-0.6952351538899646	-0.21793902627160736	1.989738803704999	-0.618081772909891	-0.2397663296701468	2.053923067315859	-0.6042285490014421	-0.23716218327975716	1.9882592570450477	-0.5264428834070985	-0.23983411425325593	1.9128309591546817	-0.46271232874999363	-1.6596502871532621	1.8608068058685487	1.0201873716554948	-0.19669287987357573	1.9916162494475176	-0.7120947841797814	-0.18075524338787322	1.9072081881218121	-0.7376865139105979	-1.459705266860556	1.86023479580896	0.6692569031017347
56	1.8666666666666667	-0.2233421684585824	1.8357019238199248	-0.5695931133936687	-0.2344794638806864	1.8313667611127544	-0.5049349631425164	-0.22066589534688386	1.712059183452904	-0.5050443214030423	-0.20930735524104926	1.585607274103425	-0.4931629413830796	-0.23584087696943531	1.5512576555429454	-0.4559318098354641	-0.23256060102247764	1.5583603454690858	-0.4330557509770194	-0.2076289331044903	1.5743853752284265	-0.5021021395528406	-0.21101468001578036	1.8373905810393227	-0.6338413263841746	-0.21235453134099003	1.7130265725446325	-0.6272144684117735	-0.22539831966822577	1.5738057473616498	-0.661913867039199	-0.2549079617666468	1.542652124813985	-0.6209123177254754	-0.24613640670932316	1.541451203682799	-0.6546751354262644	-0.21668837222972254	1.5624002453725094	-0.6695807639180844	-0.21711946429625703	1.9905369119537166	-0.6064572312519471	-0.23986067861832647	2.053389580459018	-0.5959172873137748	-0.23617510733402008	1.9879546700948845	-0.5146821534373266	-0.23461563912197253	1.9098952990283864	-0.4456158634078468	-1.6798205186707376	1.8557484991942381	1.0616789760131293	-0.1942491375037446	1.992388586474328	-0.7031004168231284	-0.17976663482755575	1.9099283769883852	-0.7347116224360191	-1.4206539411147723	1.8673812411679693	0.599968361492328
